<svg xmlns="http://www.w3.org/2000/svg" width="222" height="11" viewBox="0 0 222 11" fill="none">
<path d="M221.63 6.1871C220.157 6.16622 218.679 6.22289 217.216 6.11254C193.261 4.32897 169.258 4.27827 145.267 5.19391C118.496 6.21693 91.7485 7.69627 64.9832 8.8207C54.3332 9.26808 43.6534 9.20246 32.9975 9.55142C24.5904 9.82582 16.1952 10.3865 7.79413 10.8071C5.97831 10.8995 4.12667 11.1143 2.34968 10.9234C1.45372 10.828 0.0351203 9.97494 0.00226843 9.41721C-0.045516 8.58507 0.668265 7.30258 1.51644 6.94765C3.22473 6.23482 5.21376 5.80832 7.13709 5.63235C15.9175 4.82407 24.6949 3.82492 33.5082 3.47894C63.3675 2.3068 93.2358 1.31361 123.107 0.377085C151.9 -0.526629 180.649 0.21901 209.343 2.34557C212.13 2.55137 214.913 2.96296 217.637 3.49087C219.157 3.78614 220.552 4.52582 222 5.06268C221.875 5.4355 221.749 5.8113 221.627 6.18412L221.63 6.1871Z" fill="#7de983"/>
</svg>